<svg xmlns="http://www.w3.org/2000/svg" viewBox="0 0 800 400">
  <!-- Background -->
  
  <!-- Large Blood Drop -->
  <path d="M400 50 L460 150 A70 70 0 1 1 340 150 Z" fill="#ffffff" opacity="0.9"/>
  
  <!-- Heart Shape -->
  <g transform="translate(380 180) scale(0.8)">
    <path d="M0 0 L30 50 A35 35 0 1 1 -30 50 Z" 
          fill="#ffffff" 
          opacity="0.7"
          transform="rotate(-45)"/>
    <path d="M0 0 L30 50 A35 35 0 1 1 -30 50 Z" 
          fill="#ffffff" 
          opacity="0.7"
          transform="rotate(45) translate(-20 -20)"/>
  </g>
  
  <!-- Pulse Line -->
  <path d="M100 300 L300 300 L350 200 L400 350 L450 250 L500 300 L700 300" 
        stroke="#ffffff" 
        stroke-width="4" 
        fill="none"
        opacity="0.8"
        stroke-linecap="round"/>
  
  <!-- Decorative Drops -->
  <g opacity="0.5">
    <path d="M600 150 L615 175 A15 15 0 1 1 585 175 Z" fill="#ffffff"/>
    <path d="M200 180 L215 205 A15 15 0 1 1 185 205 Z" fill="#ffffff"/>
  </g>
</svg>